<?xml version="1.0" encoding="UTF-8"?><svg id="b" xmlns="http://www.w3.org/2000/svg" viewBox="0 0 427.47 461.5"><g id="c"><path d="M117.15,430.24c3.04-6.55,6.09-13.1,9.12-19.65,12.08-26.05,24.12-52.11,36.23-78.14,10.65-22.91,21.32-45.82,32.13-68.66.76-1.6,2.5-2.98,4.1-3.9,22.16-12.82,44.36-25.57,66.58-38.28,26.48-15.15,53.01-30.24,79.5-45.37,19.99-11.42,39.95-22.86,59.93-34.29.46-.26.95-.46,1.96-.95,0,1.41.33,2.54-.05,3.34-11.37,24.4-22.89,48.73-34.16,73.17-2.38,5.17-7.41,6.42-11.52,8.79-29.73,17.18-59.64,34.07-89.49,51.05-4.77,2.71-9.42,5.68-14.33,8.08-5.5,2.69-6.62,8.23-8.86,12.9-9.98,20.79-19.66,41.73-29.46,62.61-1.92,4.1-4.31,8.03-5.75,12.29-1.4,4.15-4.16,6.59-7.7,8.6-28.29,16.1-56.58,32.21-84.88,48.29-.78.44-1.71.61-2.57.91-.26-.26-.53-.53-.79-.79Z" fill="#fff"/><path d="M227.68,98.55c4.78-2.73,9.56-5.45,14.33-8.19,21.85-12.59,43.67-25.21,65.54-37.76,28.87-16.58,57.77-33.11,86.68-49.63,1.68-.96,3.45-1.95,5.3-2.41,7.79-1.95,12.32,1.27,13.91,10.14,2.52,14.1,4.77,28.25,7.2,42.37,1.98,11.51,4.23,22.98,6.01,34.52,1.24,8.04,1.51,16.11-2.32,23.76-1.18,2.36-2.05,4.88-2.92,7.38-3.05,8.82-9.29,14.25-17.42,18.65-17.51,9.48-34.58,19.76-51.9,29.61-3.31,1.88-6.82,4.46-10.74,1.15-3.19-2.7-3.69-6.66-1.19-12.34,5.56-12.62,11.3-25.16,16.99-37.72,4.6-10.15,9.32-20.24,13.83-30.43,5.85-13.22,11.55-26.5,17.31-39.76.17-.38.33-.77.53-1.14,2.13-4.12,5-5.47,8.37-3.95,3.08,1.39,3.82,4.42,1.89,8.64-4.18,9.13-8.49,18.2-12.66,27.33-10.79,23.58-21.54,47.17-32.29,70.77-.56,1.24-.95,2.56-1.82,4.95,2.47-.94,4.14-1.33,5.56-2.15,14.72-8.51,29.29-17.31,44.15-25.56,6.53-3.62,8.38-9.95,11.56-15.78,5.89-10.82,2.92-21.74,1.16-32.68-1.97-12.22-4.04-24.43-6.15-36.63-1.62-9.32-3.38-18.62-5.06-27.94-.52-2.88-2.17-2.89-4.26-1.74-5.13,2.82-10.27,5.63-15.35,8.54-31.6,18.04-63.21,36.06-94.76,54.18-15.95,9.16-31.88,18.39-47.61,27.93-3.05,1.85-5.99,4.88-7.51,8.07-8.97,18.89-17.5,37.98-26.15,57.02-.37.82-.41,1.79-.8,3.62,2.29-1.05,3.93-1.65,5.43-2.51,20.29-11.69,40.56-23.42,60.84-35.12,15.94-9.19,31.9-18.35,47.84-27.54,9.06-5.22,18.08-10.51,27.12-15.75,1.81-1.05,3.65-2.04,5.5-3.03,2.7-1.44,5.56-2.09,7.28,1.1,1.61,2.97.58,5.82-2.26,7.61-3.88,2.46-7.94,4.64-11.89,6.98-19.54,11.57-38.92,23.41-58.63,34.69-28.54,16.33-57.32,32.26-85.99,48.36-5.36,3.01-9.99.53-9.8-5.69.11-3.5,1.38-7,2.36-10.44.59-2.07,1.64-4,2.48-6-.35-.23-.71-.46-1.06-.68-1.06,1.4-2.39,2.67-3.15,4.22-7.82,16-15.66,31.99-23.28,48.09-10.85,22.9-21.59,45.86-32.25,68.85-2.58,5.57-7.36,8.64-12.23,11.57-10.5,6.3-21.14,12.38-31.76,18.48-3.6,2.07-7.27,3.39-11.44,1.07-3.75-2.09-4.24-5.82-4.9-9.25-2.97-15.56-5.77-31.15-8.43-46.76-1.98-11.64-3.53-23.36-5.5-35-1.87-11.09-4.11-22.12-6.06-33.2-1.93-10.95-3.79-21.91-5.5-32.89-.8-5.12-3.45-6.99-8.12-4.58-11.01,5.68-21.98,11.46-32.74,17.59-6.28,3.58-7.02,6.86-5.52,14.03,1.78,8.56,3.15,17.21,4.69,25.82,2.06,11.48,4.14,22.96,6.17,34.45,1.89,10.67,3.69,21.36,5.6,32.03,1.84,10.26,3.75,20.5,5.67,30.74,1.41,7.51,2.89,15,4.32,22.5.21,1.09.22,2.23.52,3.3,1.76,6.27,4,7.33,9.61,4.11,5.31-3.04,10.35-6.56,15.68-9.58,1.43-.81,3.44-.59,5.18-.84-.78,1.53-1.16,3.69-2.41,4.48-6.57,4.17-13.22,8.24-20.11,11.86-5.06,2.65-10.36.09-11.66-5.5-1.98-8.52-3.6-17.13-5.25-25.73-2.17-11.32-4.26-22.66-6.3-34.01-1.91-10.67-3.68-21.36-5.57-32.03-1.95-10.94-4.01-21.86-5.96-32.8-1.39-7.8-2.72-15.6-4-23.42-.63-3.83-1.23-7.68-1.59-11.55-.38-4.11,1.32-7.6,4.83-9.57,12.99-7.26,26.01-14.48,39.25-21.28,5.04-2.59,10.05.08,11.3,5.61,1.9,8.39,3.39,16.88,4.94,25.35,2.1,11.48,4.15,22.96,6.12,34.46,1.39,8.08,2.55,16.21,3.92,24.3,1.95,11.5,3.99,22.99,6.02,34.48,1.3,7.39,2.67,14.76,3.97,22.15.72,4.11,1.23,8.26,2.1,12.33.94,4.4,3.37,5.68,7.27,3.51,12.4-6.92,24.78-13.88,36.9-21.26,2.79-1.7,5.24-4.77,6.67-7.78,17.43-36.42,34.65-72.94,51.89-109.46,8.8-18.63,17.53-37.3,26.25-55.97,10.72-22.96,21.41-45.94,32.04-68.94,1.23-2.65,2-5.51,2.98-8.28-.36-.26-.71-.51-1.07-.77-1.36.53-2.83.86-4.07,1.6-19.57,11.76-39.17,23.47-58.57,35.5-2.66,1.65-4.92,4.66-6.3,7.55-16.29,34.19-32.44,68.44-48.5,102.73-12.1,25.84-24,51.78-36.11,77.62-.48,1.02-2.24,1.44-3.4,2.14-.25-1.59-1.19-3.49-.64-4.74,4.1-9.29,8.49-18.46,12.79-27.66,15-32.16,29.97-64.34,45.01-96.49,8.79-18.78,17.49-37.61,26.69-56.19,1.86-3.76,5.27-7.32,8.85-9.57,19.45-12.2,39.18-23.97,58.83-35.87,1.31-.79,2.68-1.53,4.11-2.05,3.47-1.26,6.76.54,7.05,4.22.19,2.39-.15,5.08-1.11,7.26-6.91,15.51-14.07,30.91-21.06,46.39-1.05,2.31-1.66,4.82-2.47,7.24l1.17.63Z" fill="#fff"/><path d="M52.17,461.09c-1.75-10.08-3.4-20.17-5.28-30.23-1.98-10.61-4.26-21.17-6.22-31.78-1.41-7.63-2.49-15.33-3.77-22.99-.66-3.96-1.15-7.98-2.23-11.82-2.19-7.82-1.81-9.36,4.86-13.17,17.95-10.24,35.94-20.42,53.91-30.63,9.9-5.63,19.76-11.32,29.68-16.9.97-.55,2.23-.59,3.36-.87-.11,1.14.07,2.41-.38,3.39-7.49,16.36-15.01,32.71-22.61,49.02-16.02,34.39-32.08,68.75-48.14,103.12-.54,1.15-1.3,2.19-1.95,3.27l-1.22-.4Z" fill="#fff"/><path d="M104.29,371.24c3.36-7.37,6.66-14.77,10.09-22.1,8.13-17.37,16.24-34.75,24.6-52.01,1.18-2.42,3.4-4.75,5.73-6.14,11.41-6.79,23.02-13.24,34.57-19.79,1.3-.73,2.68-1.31,5.12-2.48-.87,2.13-1.29,3.3-1.81,4.41-11.07,23.77-22.07,47.58-33.34,71.26-1.13,2.37-3.62,4.43-5.96,5.82-11.77,6.96-23.69,13.64-35.57,20.41-.81.46-1.65.88-2.48,1.32-.32-.24-.63-.47-.95-.71Z" fill="#fff"/><path d="M208.94,246.77c-4.02.13-5.22-1.72-3.77-4.98,3.73-8.39,7.57-16.73,11.43-25.06,5.61-12.12,11.55-24.09,16.81-36.35,3.24-7.56,8.2-13.09,15.3-17,17.21-9.46,34.38-19,51.57-28.5.97-.54,1.99-1.3,3.02-1.36,2.08-.13,5.17-.64,6.04.45,1.27,1.58,1.9,4.81,1.16,6.69-3.2,8.15-7,16.06-10.59,24.06-4.22,9.39-8.85,18.61-12.58,28.19-3.6,9.27-10.02,15.22-18.5,19.93-18.72,10.41-37.18,21.28-55.77,31.94-1.54.89-3.21,1.55-4.14,1.99ZM305.08,141.39c-1.26-.4-2.36-1.07-3.42-1-1.03.06-2.05.81-3.01,1.36-15.86,8.97-31.56,18.22-47.62,26.82-6.58,3.53-10.59,8.52-13.52,15.11-4.69,10.54-9.84,20.88-14.74,31.33-3.01,6.42-5.94,12.88-8.8,19.37-.39.88-.19,2.01-.26,3.03,1.02-.17,2.05-.28,3.04-.52.53-.13,1.02-.44,1.5-.72,17.71-10.21,35.52-20.27,53.05-30.77,3.36-2.01,6.6-5.35,8.29-8.84,8.31-17.14,16.08-34.54,24.04-51.85.35-.75.66-1.52,1.43-3.31Z" fill="#fff"/><path d="M195.85,228.15c5.67.02,7.75,2.86,5.67,7.12-3.3,6.74-6.91,13.33-10.66,19.82-.98,1.7-2.82,3.08-4.54,4.17-8.7,5.49-17.47,10.86-26.25,16.22-2.55,1.55-5.24,2.14-7.71-.14-2.58-2.38-2.26-5.41-.99-8.12,2.65-5.67,5.15-11.52,8.69-16.61,2.52-3.64,6.3-6.7,10.11-9.07,7.19-4.47,14.79-8.29,22.27-12.28,1.31-.7,2.86-.93,3.42-1.11ZM156.78,270.7c15.84-8.86,32.87-15.99,38.38-36.5-16.59,8.41-33.82,15.23-38.38,36.5Z" fill="#fff"/></g></svg>